<svg xmlns="http://www.w3.org/2000/svg" viewBox="0 0 100 100" role="img" aria-label="Krava cow">
  <circle cx="50" cy="50" r="50" fill="#FAF6EF"/>
  <!-- ears -->
  <ellipse cx="22" cy="42" rx="11" ry="8" fill="#1C1917" transform="rotate(-28 22 42)"/>
  <ellipse cx="78" cy="42" rx="11" ry="8" fill="#1C1917" transform="rotate(28 78 42)"/>
  <!-- horns -->
  <path d="M32 26c-6-6-14-6-17-2 4 1 8 4 12 9z" fill="#1C1917"/>
  <path d="M68 26c6-6 14-6 17-2-4 1-8 4-12 9z" fill="#1C1917"/>
  <!-- head -->
  <path d="M30 40c0-12 9-20 20-20s20 8 20 20c0 10-3 18-8 24-3 4-7 6-12 6s-9-2-12-6c-5-6-8-14-8-24z" fill="#1C1917"/>
  <!-- nosiya band -->
  <rect x="30" y="56" width="40" height="9" rx="2" fill="#B3242B"/>
  <path d="M34 60.5l3-3 3 3-3 3zM46 60.5l3-3 3 3-3 3zM58 60.5l3-3 3 3-3 3z" fill="#FAF6EF"/>
  <!-- muzzle -->
  <ellipse cx="50" cy="74" rx="15" ry="11" fill="#E8B4B0"/>
  <ellipse cx="44" cy="74" rx="2.4" ry="3.2" fill="#1C1917"/>
  <ellipse cx="56" cy="74" rx="2.4" ry="3.2" fill="#1C1917"/>
  <!-- eyes -->
  <circle cx="41" cy="46" r="3.4" fill="#FAF6EF"/>
  <circle cx="59" cy="46" r="3.4" fill="#FAF6EF"/>
</svg>
